<svg width="152" height="40" viewBox="0 0 152 40" fill="none" xmlns="http://www.w3.org/2000/svg">
<rect width="40" height="40" rx="8" fill="#F3F4F6"/>
<g clip-path="url(#clip0_4506_723)">
<path d="M17.6743 20.8242L10.3864 28.1121C10.0349 28.4636 9.46508 28.4636 9.11363 28.1121L8.26358 27.2621C7.91269 26.9112 7.91201 26.3425 8.26208 25.9908L14.0379 20.1878L8.26211 14.3849C7.91205 14.0332 7.91273 13.4645 8.26361 13.1136L9.11363 12.2636C9.46512 11.9121 10.035 11.9121 10.3864 12.2636L17.6743 19.5514C18.0258 19.9029 18.0258 20.4727 17.6743 20.8242ZM32 27.6878V26.4878C32 25.9908 31.5971 25.5878 31.1 25.5878H19.7C19.2029 25.5878 18.8 25.9908 18.8 26.4878V27.6878C18.8 28.1849 19.2029 28.5878 19.7 28.5878H31.1C31.5971 28.5878 32 28.1849 32 27.6878Z" fill="black"/>
</g>
<rect x="56" width="40" height="40" rx="8" fill="#F3F4F6"/>
<path d="M66.7711 20.2181C66.896 19.8272 67.0446 19.0303 67.3909 18.33C69.0765 14.9286 71.6838 12.4547 75.1657 10.9518C75.8376 10.6622 76.6373 10.5695 77.3793 10.5657C78.3068 10.561 78.9286 11.2064 79.0099 12.1424C79.0525 12.6298 79.0469 13.1712 78.8793 13.6198C77.2298 18.0319 74.117 20.9866 69.7409 22.6466C69.5705 22.7109 69.3803 22.7279 69.1967 22.7526C67.707 22.957 66.7483 22.1128 66.7711 20.2181ZM78.2235 16.9483C80.6425 16.7789 83.0208 16.6123 85.5127 16.4372C85.331 16.264 85.2288 16.1504 85.1105 16.0558C82.9413 14.3163 80.7665 12.5844 78.6058 10.8345C78.3919 10.6613 78.2594 10.3887 77.9736 10.0102C78.9021 10.0102 79.6526 10.0017 80.4031 10.0121C81.3088 10.0253 82.2362 9.9373 83.1164 10.1001C85.0196 10.4521 86.0351 11.6796 85.9991 13.6141C85.966 15.4274 85.7786 17.2379 85.6442 19.0483C85.4389 21.8203 85.2231 24.5924 85.0092 27.3634C84.9723 27.8414 84.9278 28.3193 84.8795 28.8871C83.8735 27.9909 82.911 27.1344 81.9504 26.277C81.8264 26.1662 81.7233 26.0233 81.5861 25.9353C80.4116 25.1876 79.9213 24.0728 79.6544 22.7402C79.3062 20.9989 78.7961 19.2897 78.3569 17.5663C78.3077 17.3732 78.2718 17.1763 78.2225 16.9464L78.2235 16.9483ZM69.1532 27.5499C69.6708 27.4779 70.1554 27.4477 70.6172 27.3284C70.7989 27.282 71.01 27.0606 71.0687 26.8751C71.504 25.4981 71.9034 24.1087 72.3151 22.7251C72.351 22.604 72.4012 22.4866 72.4675 22.3059C74.9868 23.1122 77.4862 23.9128 80.0595 24.7362C78.7203 26.0877 77.296 27.2205 75.7042 28.2389C78.5405 28.4556 81.3769 28.6723 84.2133 28.889C84.2133 28.925 84.2133 28.9619 84.2142 28.9979C83.6028 29.0414 82.9915 29.0868 82.3801 29.1275C78.7724 29.3651 75.1657 29.6017 71.558 29.8373C70.9844 29.8752 70.41 29.9376 69.8374 29.9272C67.4089 29.8828 66.0329 28.5521 66.0016 26.1161C65.9836 24.7476 66.1247 23.3772 66.2117 22.0087C66.2184 21.9055 66.366 21.8109 66.4483 21.7125C66.5704 21.8213 66.7483 21.9065 66.808 22.0428C67.5329 23.7236 68.2408 25.4119 68.9535 27.0975C69.0112 27.2328 69.0727 27.3663 69.1532 27.5499Z" fill="#EB5757"/>
<rect x="112" width="40" height="40" rx="8" fill="#F3F4F6"/>
<path d="M127.777 27.2531C127.777 27.3469 127.669 27.4219 127.533 27.4219C127.378 27.4359 127.27 27.3609 127.27 27.2531C127.27 27.1594 127.378 27.0844 127.514 27.0844C127.655 27.0703 127.777 27.1453 127.777 27.2531ZM126.319 27.0422C126.286 27.1359 126.38 27.2437 126.52 27.2719C126.642 27.3187 126.783 27.2719 126.811 27.1781C126.839 27.0844 126.75 26.9766 126.609 26.9344C126.488 26.9016 126.352 26.9484 126.319 27.0422ZM128.391 26.9625C128.255 26.9953 128.161 27.0844 128.175 27.1922C128.189 27.2859 128.311 27.3469 128.452 27.3141C128.588 27.2812 128.681 27.1922 128.667 27.0984C128.653 27.0094 128.527 26.9484 128.391 26.9625ZM131.475 9C124.973 9 120 13.9359 120 20.4375C120 25.6359 123.272 30.0844 127.945 31.65C128.545 31.7578 128.756 31.3875 128.756 31.0828C128.756 30.7922 128.742 29.1891 128.742 28.2047C128.742 28.2047 125.461 28.9078 124.772 26.8078C124.772 26.8078 124.238 25.4437 123.469 25.0922C123.469 25.0922 122.395 24.3562 123.544 24.3703C123.544 24.3703 124.711 24.4641 125.353 25.5797C126.38 27.3891 128.1 26.8687 128.77 26.5594C128.878 25.8094 129.183 25.2891 129.52 24.9797C126.9 24.6891 124.256 24.3094 124.256 19.8C124.256 18.5109 124.613 17.8641 125.363 17.0391C125.241 16.7344 124.842 15.4781 125.484 13.8562C126.464 13.5516 128.719 15.1219 128.719 15.1219C129.656 14.8594 130.664 14.7234 131.663 14.7234C132.661 14.7234 133.669 14.8594 134.606 15.1219C134.606 15.1219 136.861 13.5469 137.841 13.8562C138.483 15.4828 138.084 16.7344 137.963 17.0391C138.713 17.8687 139.172 18.5156 139.172 19.8C139.172 24.3234 136.411 24.6844 133.791 24.9797C134.222 25.35 134.588 26.0531 134.588 27.1547C134.588 28.7344 134.573 30.6891 134.573 31.0734C134.573 31.3781 134.789 31.7484 135.384 31.6406C140.072 30.0844 143.25 25.6359 143.25 20.4375C143.25 13.9359 137.977 9 131.475 9ZM124.556 25.1672C124.495 25.2141 124.509 25.3219 124.589 25.4109C124.664 25.4859 124.772 25.5188 124.833 25.4578C124.894 25.4109 124.88 25.3031 124.8 25.2141C124.725 25.1391 124.617 25.1062 124.556 25.1672ZM124.05 24.7875C124.017 24.8484 124.064 24.9234 124.158 24.9703C124.233 25.0172 124.327 25.0031 124.359 24.9375C124.392 24.8766 124.345 24.8016 124.252 24.7547C124.158 24.7266 124.083 24.7406 124.05 24.7875ZM125.569 26.4562C125.494 26.5172 125.522 26.6578 125.63 26.7469C125.737 26.8547 125.873 26.8687 125.934 26.7938C125.995 26.7328 125.967 26.5922 125.873 26.5031C125.77 26.3953 125.63 26.3813 125.569 26.4562ZM125.034 25.7672C124.959 25.8141 124.959 25.9359 125.034 26.0438C125.109 26.1516 125.236 26.1984 125.297 26.1516C125.372 26.0906 125.372 25.9688 125.297 25.8609C125.231 25.7531 125.109 25.7063 125.034 25.7672Z" fill="black"/>
<defs>
<clipPath id="clip0_4506_723">
<rect width="24" height="24" fill="white" transform="translate(8 8)"/>
</clipPath>
</defs>
</svg>
